<svg width="20" height="20" viewBox="0 0 20 20" fill="none" xmlns="http://www.w3.org/2000/svg">
<path d="M14.5527 0.442831C13.7467 0.417831 12.8757 0.721804 12.2327 1.3658L11.1147 2.49984C8.96872 2.37784 7.16072 2.93583 5.74072 3.94283C4.95372 4.50183 4.42473 5.05781 4.14673 5.47481C4.08373 5.56981 4.04973 5.67582 4.02173 5.78682L0.990723 18.0368L7.99073 11.0368C7.99073 10.0368 7.99073 10.1938 7.99073 10.0368C7.99073 8.93181 8.88573 8.03682 9.99073 8.03682C11.0957 8.03682 11.9907 8.93181 11.9907 10.0368C11.9907 11.1418 11.0957 12.0368 9.99073 12.0368C9.83373 12.0368 8.99073 12.0368 8.99073 12.0368L1.99072 19.0368L14.2407 16.0058C14.3517 15.9778 14.4577 15.9448 14.5527 15.8808C14.9677 15.6038 15.5267 15.0728 16.0847 14.2868C17.0937 12.8648 17.6727 11.0878 17.5197 8.91883L18.6827 7.76979C19.9707 6.48179 19.7787 4.41081 18.6977 3.32881L16.7097 1.33382C16.1697 0.792821 15.3597 0.467831 14.5527 0.442831ZM14.5217 2.44283C14.8187 2.45283 15.1157 2.58184 15.2937 2.75984L17.2507 4.7068C17.6067 5.0628 17.7527 5.8498 17.3147 6.28779L16.4907 7.13081C15.4007 6.03981 13.8837 4.52485 12.8987 3.54085L13.7207 2.72383C13.9387 2.50583 14.2257 2.43383 14.5217 2.44283Z" fill="black"/>
</svg>
