<svg width="142" height="142" viewBox="0 0 142 142" fill="none" xmlns="http://www.w3.org/2000/svg">
<circle cx="71" cy="71" r="71" fill="white"/>
<circle cx="71" cy="71" r="71" fill="#FF99CC" fill-opacity="0.2"/>
<mask id="mask0_1098:11242" style="mask-type:alpha" maskUnits="userSpaceOnUse" x="0" y="0" width="142" height="142">
<circle cx="71" cy="71" r="71" fill="#6666FF"/>
</mask>
<g mask="url(#mask0_1098:11242)">
<g filter="url(#filter0_ii_1098:11242)">
<path d="M97.5778 141.272C95.3203 127.983 90.2957 90.4801 71.508 89.4242C51.7737 88.3319 46.8947 128.529 45.7295 141.272C45.4019 144.768 98.1603 144.731 97.5778 141.272Z" fill="url(#paint0_radial_1098:11242)"/>
</g>
<g filter="url(#filter1_ii_1098:11242)">
<path d="M62.7338 25.2686C53.7768 25.2686 40.8148 25.2686 40.8148 25.2686C38.4117 25.2686 36.4819 27.2347 36.4819 29.6014C36.4819 29.6014 36.4819 59.4942 36.4819 59.7855C36.4819 78.8644 51.9563 94.3388 71.0353 94.3388C76.1327 94.3388 81.0117 93.2101 85.3809 91.2439C97.3599 85.8552 105.698 73.8398 105.698 59.8947C105.698 58.5475 105.625 57.2003 105.479 55.926C105.042 52.1393 103.987 48.5347 102.421 45.2214C102.02 44.3475 101.547 43.4737 101.074 42.6362C96.7045 35.0265 89.5317 29.2737 80.9753 26.725C80.9025 26.6886 73.2927 25.487 62.7338 25.2686Z" fill="url(#paint1_radial_1098:11242)"/>
</g>
<path d="M71.6904 82.1771C71.3991 82.1771 71.1079 82.1771 70.8166 82.1407C62.4422 81.6309 57.1991 73.9483 56.9807 73.6206C56.2161 72.4919 56.5438 70.9991 57.6361 70.2345C58.7648 69.4699 60.2576 69.7612 61.0222 70.8899C61.095 70.9627 65.2094 76.934 71.1443 77.2617C75.0402 77.4801 79.0453 75.2591 83.0504 70.635C83.9243 69.6155 85.4899 69.5063 86.5094 70.3801C87.5289 71.254 87.6381 72.8196 86.7643 73.8391C81.9217 79.4099 76.8971 82.1771 71.6904 82.1771Z" fill="white"/>
<path d="M93.6098 74.6766C96.6462 74.6766 99.1077 72.215 99.1077 69.1786C99.1077 66.1422 96.6462 63.6807 93.6098 63.6807C90.5733 63.6807 88.1118 66.1422 88.1118 69.1786C88.1118 72.215 90.5733 74.6766 93.6098 74.6766Z" fill="#FF7A83"/>
<path d="M50.245 74.6766C53.2814 74.6766 55.743 72.215 55.743 69.1786C55.743 66.1422 53.2814 63.6807 50.245 63.6807C47.2086 63.6807 44.7471 66.1422 44.7471 69.1786C44.7471 72.215 47.2086 74.6766 50.245 74.6766Z" fill="#FF7A83"/>
<path d="M64.7368 59.1659C64.7368 59.7849 64.8096 60.4403 64.8096 61.0592C64.8096 62.1516 66.4845 62.1516 66.5209 61.0592C66.5209 60.4403 66.4481 59.7849 66.4481 59.1659C66.4481 58.0736 64.7368 58.0736 64.7368 59.1659Z" fill="#231F20"/>
<path d="M76.7168 59.0932C76.7168 59.6393 76.7168 60.1855 76.7168 60.6952C76.7168 61.2049 77.1538 61.6419 77.6635 61.6419C78.1732 61.6419 78.6102 61.2049 78.6102 60.6952C78.6102 60.149 78.6102 59.6029 78.6102 59.0932C78.6102 58.5834 78.1732 58.1465 77.6635 58.1465C77.1538 58.1465 76.7168 58.5834 76.7168 59.0932Z" fill="#231F20"/>
<path d="M36.8469 84.2893L36.4828 82.9785C36.4828 82.9785 30.3659 83.4883 30.0018 88.258C29.6377 93.3554 37.0289 99.0354 37.0289 99.0354L38.631 97.8339C38.6674 97.8339 28.3997 88.8406 36.8469 84.2893Z" fill="black"/>
<path d="M45.3308 91.6799C44.9303 92.0804 43.4375 92.0804 43.037 91.6799C42.8913 91.5343 42.9278 91.1701 42.7457 90.8424C42.5637 90.5512 40.816 90.0414 40.1606 89.9322C39.7965 89.8594 38.9955 90.005 38.0124 89.6773C38.0124 89.6773 36.9929 89.6773 37.5754 90.5512C38.158 91.425 44.5662 94.1194 44.5298 94.8112C44.4934 95.503 44.1657 95.8671 44.1657 95.8671L44.457 96.4132L44.6026 96.3404L44.7483 96.6317L44.6026 96.7045L44.8939 97.2507C46.1319 97.5784 47.2606 97.4691 47.2606 97.4691L47.4062 97.7604C47.8795 97.6512 48.1344 97.7968 48.1344 97.7968L48.9719 99.3625C48.9719 99.3625 48.9719 99.3989 48.9355 99.5081C48.899 99.6173 48.7898 99.763 48.6078 99.9814L48.9719 100.637L40.7431 105.188L40.379 104.533C39.7965 104.642 39.6508 104.496 39.6508 104.496L38.8134 102.931C38.8134 102.931 38.8134 102.858 38.8862 102.749C38.9226 102.639 39.0318 102.494 39.2139 102.312L39.0683 102.02C39.0683 102.02 39.7965 101.11 40.1606 99.9086L39.8693 99.3625L39.7236 99.4353L39.578 99.144L39.7236 99.0712L39.4324 98.525C39.4324 98.525 34.1893 93.8281 32.6236 90.9881C31.4585 88.8763 32.2231 86.6189 34.2985 85.3081C34.1165 85.2717 33.898 85.1989 33.7888 85.1261C33.3518 84.9076 32.9149 83.4512 32.9149 83.4512C32.9149 83.4512 34.517 84.1066 34.9175 84.325C35.0631 84.4343 35.1724 84.6163 35.2088 84.7984C35.4637 84.6891 35.7549 84.5799 36.0462 84.5071C36.3011 84.4343 36.5924 84.3614 36.8837 84.2886C36.8837 84.2886 37.8303 84.3614 38.1944 84.5435C38.5585 84.7255 39.5416 85.2717 39.6872 85.563C39.8329 85.8542 43.9472 88.585 43.9472 88.585C43.9472 88.585 45.1124 89.204 45.3308 89.5317C45.6949 89.9686 45.8042 91.243 45.3308 91.6799Z" fill="black"/>
<mask id="mask1_1098:11242" style="mask-type:alpha" maskUnits="userSpaceOnUse" x="32" y="83" width="16" height="23">
<path d="M40.7793 105.152L40.4152 104.497C39.8326 104.606 39.687 104.46 39.687 104.46L38.8495 102.895C38.8495 102.895 38.8495 102.822 38.9223 102.712C38.9588 102.603 39.068 102.458 39.25 102.276L39.1044 101.984C39.1044 101.984 39.8326 101.074 40.1967 99.8725L39.9054 99.3263L39.7598 99.3991L39.6141 99.1078L39.7598 99.035L39.4685 98.4889C39.4685 98.4889 34.2254 93.792 32.6598 90.952C31.4947 88.8402 32.2593 86.5827 34.3346 85.272C34.1526 85.2355 33.9341 85.1627 33.8249 85.0899C33.388 84.8714 32.9511 83.415 32.9511 83.415C32.9511 83.415 34.5531 84.0704 34.9536 84.2889C35.0993 84.3981 35.2085 84.5802 35.2449 84.7622C35.4998 84.653 35.791 84.5437 36.0823 84.4709C34.808 85.2719 32.8054 87.4202 36.7741 91.9714C41.6167 97.5786 44.6751 97.6515 47.0054 101.693L40.7793 105.152Z" fill="url(#paint2_linear_1098:11242)"/>
</mask>
<g mask="url(#mask1_1098:11242)">
<path d="M40.7793 105.152L40.4152 104.497C39.8326 104.606 39.687 104.46 39.687 104.46L38.8495 102.895C38.8495 102.895 38.8495 102.822 38.9223 102.712C38.9588 102.603 39.068 102.458 39.25 102.276L39.1044 101.984C39.1044 101.984 39.8326 101.074 40.1967 99.8725L39.9054 99.3263L39.7598 99.3991L39.6141 99.1078L39.7598 99.035L39.4685 98.4889C39.4685 98.4889 34.2254 93.792 32.6598 90.952C31.4947 88.8402 32.2593 86.5827 34.3346 85.272C34.1526 85.2355 33.9341 85.1627 33.8249 85.0899C33.388 84.8714 32.9511 83.415 32.9511 83.415C32.9511 83.415 34.5531 84.0704 34.9536 84.2889C35.0993 84.3981 35.2085 84.5802 35.2449 84.7622C35.4998 84.653 35.791 84.5437 36.0823 84.4709C34.808 85.2719 32.8054 87.4202 36.7741 91.9714C41.6167 97.5786 44.6751 97.6515 47.0054 101.693L40.7793 105.152Z" fill="url(#paint3_linear_1098:11242)"/>
</g>
<path d="M114.728 111.124L114.801 111.452C114.91 111.415 115.019 111.488 115.019 111.597L115.092 111.889C115.128 111.998 115.056 112.071 114.946 112.107L115.165 113.163L106.645 114.984L106.426 113.928C106.317 113.964 106.208 113.891 106.208 113.782L106.135 113.491C106.099 113.382 106.171 113.309 106.281 113.272L106.208 112.945C106.062 112.981 105.771 112.872 105.698 112.508C105.662 112.326 105.735 112.18 105.807 112.071C105.88 111.962 105.989 111.925 105.989 111.925C107.337 110.505 107.956 107.956 107.628 106.391C107.409 105.335 107.082 104.752 106.827 104.425C106.572 104.097 106.354 104.024 106.354 104.024L106.281 103.769C106.281 103.769 105.917 103.514 106.281 103.223L106.645 103.15L106.572 102.895L107.555 102.677C106.608 102.495 105.771 101.657 105.553 100.565C105.225 99.1087 106.026 97.7252 107.3 97.4339C107.482 97.3975 107.664 97.3975 107.846 97.3975C108.939 97.4339 109.922 98.3077 110.177 99.5821C110.431 100.711 109.995 101.767 109.23 102.349L110.213 102.131L110.286 102.386L110.65 102.313C111.087 102.422 110.868 102.823 110.868 102.823L110.941 103.077C110.941 103.077 110.286 103.696 110.723 105.808C111.05 107.374 112.653 109.449 114.473 110.177C114.473 110.177 114.91 110.25 114.983 110.614C115.019 110.796 114.983 110.942 114.91 111.051C114.874 111.051 114.801 111.124 114.728 111.124Z" fill="black"/>
<mask id="mask2_1098:11242" style="mask-type:alpha" maskUnits="userSpaceOnUse" x="105" y="97" width="5" height="18">
<path d="M109.522 114.329L106.645 114.947L106.427 113.892C106.318 113.928 106.208 113.855 106.208 113.746L106.136 113.455C106.099 113.345 106.172 113.273 106.281 113.236L106.208 112.909C106.063 112.945 105.771 112.836 105.699 112.472C105.662 112.29 105.735 112.144 105.808 112.035C105.881 111.925 105.99 111.889 105.99 111.889C107.337 110.469 107.956 107.92 107.628 106.355C107.41 105.299 107.082 104.716 106.827 104.389C106.572 104.061 106.354 103.988 106.354 103.988L106.281 103.733C106.281 103.733 105.917 103.478 106.281 103.187L106.645 103.114L106.572 102.859L107.556 102.641C106.609 102.459 105.771 101.621 105.553 100.529C105.225 99.0726 106.026 97.689 107.301 97.3977C107.483 97.3613 107.665 97.3613 107.847 97.3613C107.847 97.3613 105.626 99.6552 108.175 102.422C110.614 104.971 108.794 111.489 109.522 114.329Z" fill="url(#paint4_linear_1098:11242)"/>
</mask>
<g mask="url(#mask2_1098:11242)">
<path d="M109.522 114.329L106.645 114.947L106.427 113.892C106.318 113.928 106.208 113.855 106.208 113.746L106.136 113.455C106.099 113.345 106.172 113.273 106.281 113.236L106.208 112.909C106.063 112.945 105.771 112.836 105.699 112.472C105.662 112.29 105.735 112.144 105.808 112.035C105.881 111.925 105.99 111.889 105.99 111.889C107.337 110.469 107.956 107.92 107.628 106.355C107.41 105.299 107.082 104.716 106.827 104.389C106.572 104.061 106.354 103.988 106.354 103.988L106.281 103.733C106.281 103.733 105.917 103.478 106.281 103.187L106.645 103.114L106.572 102.859L107.556 102.641C106.609 102.459 105.771 101.621 105.553 100.529C105.225 99.0726 106.026 97.689 107.301 97.3977C107.483 97.3613 107.665 97.3613 107.847 97.3613C107.847 97.3613 105.626 99.6552 108.175 102.422C110.614 104.971 108.794 111.489 109.522 114.329Z" fill="#58595B"/>
</g>
<path d="M104.336 87.8076C104.766 86.5732 104.052 85.2027 102.742 84.7465C101.431 84.2903 100.02 84.9212 99.5907 86.1556C99.1609 87.39 99.8748 88.7604 101.185 89.2166C102.496 89.6728 103.906 89.042 104.336 87.8076Z" fill="#F3B57E"/>
<path d="M100.309 105.807L99.6533 107.628L90.8784 104.569L91.5338 102.749C91.7523 102.64 92.0436 102.603 92.262 102.603C92.4805 102.603 92.6625 102.64 92.6625 102.64L92.9538 101.802C92.9538 101.802 92.7353 101.584 92.7353 101.402L92.9538 100.783L92.7718 100.71L92.9902 100.091L92.7353 100.018L92.9538 99.3992C95.1749 98.7438 96.7769 96.2315 97.3959 94.3746C98.2697 91.8987 97.6143 91.0613 97.6143 91.0613L97.7236 90.77C97.7236 90.77 97.5415 90.2603 98.0513 90.1874C98.0513 90.1874 98.7794 90.0418 98.561 89.4228L98.6702 89.1316L99.2528 89.35L99.2892 89.2044H99.2528C99.0343 89.1315 98.9615 88.9131 99.0343 88.6946C99.5077 87.5295 99.4712 86.2551 99.4348 85.5269C99.3984 85.1264 99.4713 84.7259 99.5805 84.3618L99.6897 84.0705C99.7261 83.9249 99.9446 83.8885 100.017 84.0341L100.673 85.09C100.746 85.1992 100.891 85.1992 100.964 85.09L101.619 84.289C101.729 84.1797 101.911 84.2162 101.947 84.3618L102.384 85.709L103.549 84.908C103.658 84.8351 103.84 84.908 103.84 85.0536V86.1095C103.84 86.2187 103.95 86.328 104.095 86.2915L105.26 85.891C105.406 85.8546 105.552 85.9639 105.479 86.1095L105.37 86.4008C105.224 86.7649 105.042 87.129 104.751 87.4203C104.277 87.93 103.44 88.9495 103.076 90.151C103.003 90.3695 102.785 90.4787 102.603 90.4059H102.566L102.53 90.5515L103.112 90.77L103.003 91.0613C102.457 91.4254 102.93 92.008 102.93 92.008C103.294 92.4085 102.821 92.6633 102.821 92.6633L102.712 92.9546C102.712 92.9546 101.692 93.2095 100.818 95.6854C100.163 97.5059 99.8718 100.492 101.183 102.385L100.964 103.004L100.709 102.931L100.491 103.55L100.309 103.477L100.09 104.096C100.017 104.169 99.9082 104.242 99.8353 104.242C99.7261 104.278 99.6533 104.278 99.6533 104.278L99.362 105.116C99.5077 105.006 100.09 105.334 100.309 105.807Z" fill="#FF9900"/>
<path d="M103.502 84.2197C103.654 83.7829 103.547 83.3484 103.262 83.2492C102.977 83.15 102.623 83.4237 102.471 83.8605C102.319 84.2973 102.426 84.7318 102.711 84.831C102.996 84.9301 103.35 84.6564 103.502 84.2197Z" fill="#F3B57E"/>
<mask id="mask3_1098:11242" style="mask-type:alpha" maskUnits="userSpaceOnUse" x="90" y="83" width="13" height="24">
<path d="M95.9395 106.354L90.8784 104.607L91.5338 102.786C91.7523 102.677 92.0436 102.64 92.262 102.64C92.4805 102.64 92.6625 102.677 92.6625 102.677L92.9538 101.839C92.9538 101.839 92.7353 101.621 92.7353 101.439L92.9538 100.82L92.7718 100.747L92.9902 100.128L92.7353 100.055L92.9538 99.4364C95.1749 98.781 96.7769 96.2687 97.3959 94.4118C98.2697 91.9359 97.6143 91.0984 97.6143 91.0984L97.7236 90.8071C97.7236 90.8071 97.5415 90.2974 98.0513 90.2246C98.0513 90.2246 98.7794 90.0789 98.561 89.4599L98.6702 89.1687L99.2528 89.3871L99.2892 89.2415H99.2528C99.0343 89.1687 98.9615 88.9502 99.0343 88.7317C99.5077 87.5666 99.4712 86.2923 99.4348 85.564C99.3984 85.1635 99.4713 84.763 99.5805 84.3989L99.6897 84.1076C99.7261 83.962 99.9446 83.9256 100.017 84.0712L100.673 85.1271C100.746 85.2364 100.891 85.2364 100.964 85.1271L101.619 84.3261C101.729 84.2169 101.911 84.2533 101.947 84.3989L102.384 85.7461C101.692 86.6564 101.001 87.9307 100.6 89.7512C99.6169 94.3025 98.1969 96.9241 96.7041 99.2907C95.5389 101.148 95.102 104.716 95.9395 106.354Z" fill="url(#paint5_linear_1098:11242)"/>
</mask>
<g mask="url(#mask3_1098:11242)">
<path d="M95.9395 106.354L90.8784 104.607L91.5338 102.786C91.7523 102.677 92.0436 102.64 92.262 102.64C92.4805 102.64 92.6625 102.677 92.6625 102.677L92.9538 101.839C92.9538 101.839 92.7353 101.621 92.7353 101.439L92.9538 100.82L92.7718 100.747L92.9902 100.128L92.7353 100.055L92.9538 99.4364C95.1749 98.781 96.7769 96.2687 97.3959 94.4118C98.2697 91.9359 97.6143 91.0984 97.6143 91.0984L97.7236 90.8071C97.7236 90.8071 97.5415 90.2974 98.0513 90.2246C98.0513 90.2246 98.7794 90.0789 98.561 89.4599L98.6702 89.1687L99.2528 89.3871L99.2892 89.2415H99.2528C99.0343 89.1687 98.9615 88.9502 99.0343 88.7317C99.5077 87.5666 99.4712 86.2923 99.4348 85.564C99.3984 85.1635 99.4713 84.763 99.5805 84.3989L99.6897 84.1076C99.7261 83.962 99.9446 83.9256 100.017 84.0712L100.673 85.1271C100.746 85.2364 100.891 85.2364 100.964 85.1271L101.619 84.3261C101.729 84.2169 101.911 84.2533 101.947 84.3989L102.384 85.7461C101.692 86.6564 101.001 87.9307 100.6 89.7512C99.6169 94.3025 98.1969 96.9241 96.7041 99.2907C95.5389 101.148 95.102 104.716 95.9395 106.354Z" fill="url(#paint6_linear_1098:11242)"/>
</g>
<path d="M94.0104 121.136L92.8817 118.77H86.1094L87.056 121.136H94.0104Z" fill="#67D75B"/>
<path d="M109.413 135.701H117.314L114.583 132.023H107.083L109.413 135.701Z" fill="#67D75B"/>
<path d="M104.314 127.69H111.342L108.975 124.486H102.275L104.314 127.69Z" fill="#67D75B"/>
<path d="M80.6482 121.136L80.0293 118.77H73.439L73.7303 121.136H80.6482Z" fill="#67D75B"/>
<path d="M66.7392 121.136L67.0305 118.77H59.8577L59.3115 121.136H66.7392Z" fill="#67D75B"/>
<path d="M42.0166 118.77H36.4095L34.5161 121.136H40.4874L42.0166 118.77Z" fill="#67D75B"/>
<path d="M52.9758 121.136L53.8861 118.77H47.9876L46.8589 121.136H52.9758Z" fill="#67D75B"/>
<path d="M56.909 132.023L56.1079 135.701H64.8828L65.3561 132.023H56.909Z" fill="#67D75B"/>
<path d="M51.7378 124.486H45.2568L43.7275 127.69H50.5363L51.7378 124.486Z" fill="#67D75B"/>
<path d="M82.2858 127.69L81.4848 124.486H74.1299L74.5304 127.69H82.2858Z" fill="#67D75B"/>
<path d="M65.9021 127.69L66.3026 124.486H58.5837L57.8555 127.69H65.9021Z" fill="#67D75B"/>
<path d="M97.1056 127.69L95.6128 124.486H88.4399L89.7143 127.69H97.1056Z" fill="#67D75B"/>
<path d="M75.04 132.023L75.477 135.701H84.2883L83.3416 132.023H75.04Z" fill="#67D75B"/>
<path d="M92.9543 135.701H100.928L99.1804 132.023H91.4614L92.9543 135.701Z" fill="#67D75B"/>
<path d="M38.3386 124.486H31.8575L29.3452 127.69H36.2632L38.3386 124.486Z" fill="#67D75B"/>
<path d="M41.6525 132.023L39.9048 135.701H47.5509L48.8981 132.023H41.6525Z" fill="#67D75B"/>
<path d="M106.463 121.136L104.679 118.77H98.6348L100.164 121.136H106.463Z" fill="#67D75B"/>
<path d="M54.9432 140.943L53.8145 145.895H63.6088L64.2278 140.943H54.9432Z" fill="#67D75B"/>
<path d="M37.3925 140.943L35.0259 145.895H43.7279L45.5848 140.943H37.3925Z" fill="#67D75B"/>
<path d="M115.893 145.895H124.959L121.246 140.943H112.726L115.893 145.895Z" fill="#67D75B"/>
<path d="M18.8964 140.943L15.0005 145.895H24.5764L27.7805 140.943H18.8964Z" fill="#67D75B"/>
<path d="M76.1328 140.943L76.7518 145.895H86.8374L85.5995 140.943H76.1328Z" fill="#67D75B"/>
<path d="M95.1025 140.943L97.1051 145.895H105.771L103.404 140.943H95.1025Z" fill="#67D75B"/>
<path d="M33.4971 132.023H25.9602L23.0474 135.701H31.1304L33.4971 132.023Z" fill="#67D75B"/>
<path d="M81.4859 124.486L80.6484 121.137H73.7305L74.131 124.486H81.4859Z" fill="#CFFFC7"/>
<path d="M102.276 124.486H108.975L106.463 121.137H100.164L102.276 124.486Z" fill="#CFFFC7"/>
<path d="M95.6121 124.486L94.01 121.137H87.0557L88.4393 124.486H95.6121Z" fill="#CFFFC7"/>
<path d="M51.7388 124.486L52.9768 121.137H46.8598L45.2578 124.486H51.7388Z" fill="#CFFFC7"/>
<path d="M66.302 124.486L66.7389 121.137H59.3112L58.583 124.486H66.302Z" fill="#CFFFC7"/>
<path d="M40.4871 121.137H34.5159L31.8579 124.486H38.339L40.4871 121.137Z" fill="#CFFFC7"/>
<path d="M36.2636 127.69H29.3456L25.9595 132.023H33.4964L36.2636 127.69Z" fill="#CFFFC7"/>
<path d="M50.5365 127.69H43.7277L41.6523 132.023H48.898L50.5365 127.69Z" fill="#CFFFC7"/>
<path d="M57.8558 127.69L56.9092 132.023H65.3563L65.9025 127.69H57.8558Z" fill="#CFFFC7"/>
<path d="M74.5303 127.69L75.04 132.023H83.3416L82.2857 127.69H74.5303Z" fill="#CFFFC7"/>
<path d="M107.081 132.023H114.582L111.341 127.69H104.314L107.081 132.023Z" fill="#CFFFC7"/>
<path d="M89.7139 127.69L91.4615 132.023H99.1805L97.1051 127.69H89.7139Z" fill="#CFFFC7"/>
<path d="M92.9546 135.7L95.1028 140.943H103.404L100.928 135.7H92.9546Z" fill="#CFFFC7"/>
<path d="M56.107 135.7L54.9419 140.943H64.2265L64.8819 135.7H56.107Z" fill="#CFFFC7"/>
<path d="M31.1298 135.7H23.0468L18.896 140.943H27.7801L31.1298 135.7Z" fill="#CFFFC7"/>
<path d="M75.478 135.7L76.1334 140.943H85.6L84.2893 135.7H75.478Z" fill="#CFFFC7"/>
<path d="M109.412 135.7L112.725 140.943H121.245L117.313 135.7H109.412Z" fill="#CFFFC7"/>
<path d="M39.9044 135.7L37.3921 140.943H45.5844L47.5506 135.7H39.9044Z" fill="#CFFFC7"/>
<path d="M41.6525 132.023H33.4965L31.1299 135.701H39.9047L41.6525 132.023Z" fill="#67D75B"/>
<path d="M41.6525 132.023H33.4965L31.1299 135.701H39.9047L41.6525 132.023Z" fill="#CFFFC7"/>
<path d="M27.7808 140.943L24.5767 145.895H35.0264L37.3931 140.943H27.7808Z" fill="#67D75B"/>
<path d="M27.7808 140.943L24.5767 145.895H35.0264L37.3931 140.943H27.7808Z" fill="#CFFFC7"/>
<path d="M46.8596 121.136L47.9883 118.77H42.017L40.4878 121.136H46.8596Z" fill="#67D75B"/>
<path d="M46.8596 121.136L47.9883 118.77H42.017L40.4878 121.136H46.8596Z" fill="#CFFFC7"/>
<path d="M45.257 124.486H38.3391L36.2637 127.69H43.7278L45.257 124.486Z" fill="#67D75B"/>
<path d="M45.257 124.486H38.3391L36.2637 127.69H43.7278L45.257 124.486Z" fill="#CFFFC7"/>
<path d="M46.8598 121.137H40.488L38.3398 124.486H45.2578L46.8598 121.137Z" fill="#CFFFC7"/>
<path d="M46.8598 121.137H40.488L38.3398 124.486H45.2578L46.8598 121.137Z" fill="#67D75B"/>
<path d="M43.7279 127.69H36.2638L33.4966 132.023H41.6525L43.7279 127.69Z" fill="#CFFFC7"/>
<path d="M43.7279 127.69H36.2638L33.4966 132.023H41.6525L43.7279 127.69Z" fill="#67D75B"/>
<path d="M31.13 135.7L27.7803 140.943H37.3926L39.9049 135.7H31.13Z" fill="#CFFFC7"/>
<path d="M31.13 135.7L27.7803 140.943H37.3926L39.9049 135.7H31.13Z" fill="#67D75B"/>
<path d="M59.3115 121.136L59.8576 118.77H53.8863L52.9761 121.136H59.3115Z" fill="#67D75B"/>
<path d="M59.3115 121.136L59.8576 118.77H53.8863L52.9761 121.136H59.3115Z" fill="#CFFFC7"/>
<path d="M48.8985 132.023L47.5513 135.701H56.1077L56.9087 132.023H48.8985Z" fill="#67D75B"/>
<path d="M48.8985 132.023L47.5513 135.701H56.1077L56.9087 132.023H48.8985Z" fill="#CFFFC7"/>
<path d="M45.5845 140.943L43.7275 145.895H53.8132L54.9419 140.943H45.5845Z" fill="#67D75B"/>
<path d="M45.5845 140.943L43.7275 145.895H53.8132L54.9419 140.943H45.5845Z" fill="#CFFFC7"/>
<path d="M57.856 127.69L58.5843 124.486H51.7391L50.5376 127.69H57.856Z" fill="#67D75B"/>
<path d="M57.856 127.69L58.5843 124.486H51.7391L50.5376 127.69H57.856Z" fill="#CFFFC7"/>
<path d="M58.5834 124.486L59.3116 121.137H52.9762L51.7383 124.486H58.5834Z" fill="#CFFFC7"/>
<path d="M58.5834 124.486L59.3116 121.137H52.9762L51.7383 124.486H58.5834Z" fill="#67D75B"/>
<path d="M50.5364 127.69L48.8979 132.023H56.9082L57.8549 127.69H50.5364Z" fill="#CFFFC7"/>
<path d="M50.5364 127.69L48.8979 132.023H56.9082L57.8549 127.69H50.5364Z" fill="#67D75B"/>
<path d="M47.5516 135.7L45.5854 140.943H54.9429L56.108 135.7H47.5516Z" fill="#CFFFC7"/>
<path d="M47.5516 135.7L45.5854 140.943H54.9429L56.108 135.7H47.5516Z" fill="#67D75B"/>
<path d="M100.163 121.136L98.6342 118.77H92.8813L94.0101 121.136H100.163Z" fill="#67D75B"/>
<path d="M100.163 121.136L98.6342 118.77H92.8813L94.0101 121.136H100.163Z" fill="#CFFFC7"/>
<path d="M103.405 140.943L105.772 145.895H115.894L112.726 140.943H103.405Z" fill="#67D75B"/>
<path d="M103.405 140.943L105.772 145.895H115.894L112.726 140.943H103.405Z" fill="#CFFFC7"/>
<path d="M99.1807 132.023L100.928 135.701H109.412L107.082 132.023H99.1807Z" fill="#67D75B"/>
<path d="M99.1807 132.023L100.928 135.701H109.412L107.082 132.023H99.1807Z" fill="#CFFFC7"/>
<path d="M97.1051 127.69H104.314L102.275 124.486H95.6123L97.1051 127.69Z" fill="#67D75B"/>
<path d="M97.1051 127.69H104.314L102.275 124.486H95.6123L97.1051 127.69Z" fill="#CFFFC7"/>
<path d="M102.276 124.486L100.165 121.137H94.0112L95.6133 124.486H102.276Z" fill="#CFFFC7"/>
<path d="M102.276 124.486L100.165 121.137H94.0112L95.6133 124.486H102.276Z" fill="#67D75B"/>
<path d="M99.1814 132.023H107.082L104.315 127.69H97.106L99.1814 132.023Z" fill="#CFFFC7"/>
<path d="M99.1814 132.023H107.082L104.315 127.69H97.106L99.1814 132.023Z" fill="#67D75B"/>
<path d="M103.404 140.943H112.725L109.412 135.7H100.928L103.404 140.943Z" fill="#CFFFC7"/>
<path d="M103.404 140.943H112.725L109.412 135.7H100.928L103.404 140.943Z" fill="#67D75B"/>
<path d="M89.7146 127.69L88.4402 124.486H81.4858L82.2868 127.69H89.7146Z" fill="#67D75B"/>
<path d="M89.7146 127.69L88.4402 124.486H81.4858L82.2868 127.69H89.7146Z" fill="#CFFFC7"/>
<path d="M83.3428 132.023L84.2894 135.701H92.9551L91.4622 132.023H83.3428Z" fill="#67D75B"/>
<path d="M83.3428 132.023L84.2894 135.701H92.9551L91.4622 132.023H83.3428Z" fill="#CFFFC7"/>
<path d="M87.057 121.136L86.1103 118.77H80.0298L80.6487 121.136H87.057Z" fill="#67D75B"/>
<path d="M87.057 121.136L86.1103 118.77H80.0298L80.6487 121.136H87.057Z" fill="#CFFFC7"/>
<path d="M85.5996 140.943L86.8376 145.895H97.1052L95.1027 140.943H85.5996Z" fill="#67D75B"/>
<path d="M85.5996 140.943L86.8376 145.895H97.1052L95.1027 140.943H85.5996Z" fill="#CFFFC7"/>
<path d="M88.4393 124.486L87.0557 121.137H80.6475L81.4849 124.486H88.4393Z" fill="#CFFFC7"/>
<path d="M88.4393 124.486L87.0557 121.137H80.6475L81.4849 124.486H88.4393Z" fill="#67D75B"/>
<path d="M83.342 132.023H91.4615L89.7138 127.69H82.2861L83.342 132.023Z" fill="#CFFFC7"/>
<path d="M83.342 132.023H91.4615L89.7138 127.69H82.2861L83.342 132.023Z" fill="#67D75B"/>
<path d="M84.2891 135.7L85.5998 140.943H95.1029L92.9547 135.7H84.2891Z" fill="#CFFFC7"/>
<path d="M84.2891 135.7L85.5998 140.943H95.1029L92.9547 135.7H84.2891Z" fill="#67D75B"/>
<path d="M64.2279 140.943L63.6089 145.895H76.753L76.134 140.943H64.2279Z" fill="#67D75B"/>
<path d="M64.2279 140.943L63.6089 145.895H76.753L76.134 140.943H64.2279Z" fill="#CFFFC7"/>
<path d="M65.3562 132.023L64.8828 135.701H75.4782L75.0413 132.023H65.3562Z" fill="#67D75B"/>
<path d="M65.3562 132.023L64.8828 135.701H75.4782L75.0413 132.023H65.3562Z" fill="#CFFFC7"/>
<path d="M73.73 121.136L73.4387 118.77H67.0305L66.7393 121.136H73.73Z" fill="#67D75B"/>
<path d="M73.73 121.136L73.4387 118.77H67.0305L66.7393 121.136H73.73Z" fill="#CFFFC7"/>
<path d="M74.5311 127.69L74.1306 124.486H66.3024L65.9019 127.69H74.5311Z" fill="#67D75B"/>
<path d="M74.5311 127.69L74.1306 124.486H66.3024L65.9019 127.69H74.5311Z" fill="#CFFFC7"/>
<path d="M74.1309 124.486L73.7304 121.137H66.7397L66.3027 124.486H74.1309Z" fill="#CFFFC7"/>
<path d="M74.1309 124.486L73.7304 121.137H66.7397L66.3027 124.486H74.1309Z" fill="#67D75B"/>
<path d="M65.9011 127.69L65.355 132.023H75.0401L74.5303 127.69H65.9011Z" fill="#CFFFC7"/>
<path d="M65.9011 127.69L65.355 132.023H75.0401L74.5303 127.69H65.9011Z" fill="#67D75B"/>
<path d="M64.8829 135.7L64.2275 140.943H76.1337L75.4783 135.7H64.8829Z" fill="#CFFFC7"/>
<path d="M64.8829 135.7L64.2275 140.943H76.1337L75.4783 135.7H64.8829Z" fill="#67D75B"/>
<ellipse opacity="0.3" cx="65.3566" cy="131.95" rx="10.0128" ry="1.82052" fill="#5E5E5E"/>
<path d="M67.7958 128.819H67.8686V129.693H67.7958C67.905 129.693 68.0143 129.766 68.0143 129.912V130.021C68.0143 130.166 67.9778 131.295 67.6502 132.096H55.2342C54.9065 131.295 54.8701 130.166 54.8701 130.021V129.912C54.8701 129.802 54.9794 129.693 55.0886 129.693H55.0158V128.819H55.0886C54.9794 128.819 54.8701 128.746 54.8701 128.601V128.492C54.8701 128.382 54.9794 128.273 55.0886 128.273H55.4891V127.763C55.3071 127.763 54.943 127.508 54.943 126.889C54.943 126.562 55.0886 126.343 55.1978 126.234C55.3435 126.088 55.4527 126.016 55.4527 126.016C58.0014 124.232 58.8752 120.299 58.8752 117.678C58.8752 115.93 58.584 114.838 58.2927 114.219C58.0014 113.6 57.7101 113.381 57.7101 113.381V113.017H57.8922V112.617H57.6737C57.5645 112.617 57.4917 112.544 57.4917 112.471V112.289C57.4917 112.216 57.5645 112.143 57.6737 112.143H57.7465C57.7465 112.143 57.2732 111.561 57.9286 111.197C57.9286 111.197 58.4383 110.869 58.4383 110.396C58.4383 110.25 58.4019 110.068 58.2563 109.886V109.413H59.0937V109.012H59.4942C59.0209 109.012 58.6204 108.684 58.5111 108.247L57.5645 103.842C57.5645 103.769 57.5281 103.696 57.5281 103.623C57.5281 103.478 57.5281 102.713 59.2758 102.167V101.948H60.1132C59.9312 101.948 59.7855 101.803 59.8219 101.657L60.1132 100.783C60.186 100.601 59.9676 100.456 59.7491 100.492L58.6932 100.747C58.5111 100.783 58.3291 100.674 58.3291 100.528V98.3438C58.3291 98.1982 58.5111 98.089 58.6932 98.1254L59.7491 98.3802C59.9676 98.4166 60.1496 98.271 60.1132 98.089L59.8219 97.2151C59.7855 97.0695 59.8947 96.9238 60.1132 96.9238H62.7712C62.9532 96.9238 63.0988 97.0695 63.0624 97.2151L62.7712 98.089C62.6983 98.271 62.9168 98.4166 63.1353 98.3802L64.2276 98.1254C64.4096 98.089 64.5917 98.1982 64.5917 98.3438V100.528C64.5917 100.674 64.4096 100.783 64.2276 100.747L63.1353 100.492C62.9168 100.456 62.7348 100.601 62.7712 100.783L63.0624 101.657C63.0988 101.803 62.9896 101.948 62.7712 101.948H63.6086V102.167C65.247 102.64 65.3563 103.405 65.3563 103.587C65.3563 103.623 65.3563 103.623 65.3563 103.623C65.3563 103.696 65.3563 103.769 65.3199 103.842L64.3732 108.247C64.264 108.684 63.8635 109.012 63.3901 109.012H63.7906V109.485H64.6281V109.959C64.1183 110.723 64.9558 111.269 64.9558 111.269C65.6112 111.634 65.1378 112.216 65.1378 112.216H65.2106C65.3199 112.216 65.3927 112.289 65.3927 112.362V112.544C65.3927 112.617 65.3199 112.689 65.2106 112.689H64.9922V113.09H65.1742V113.454C65.1742 113.454 63.9727 114.255 63.9727 117.75C63.9727 119.061 64.1912 120.7 64.7373 122.229C65.2835 123.758 66.1209 125.178 67.3953 126.088C67.3953 126.088 67.9414 126.343 67.9414 126.962C67.9414 127.29 67.8686 127.508 67.723 127.618C67.6137 127.763 67.4681 127.836 67.3953 127.836V128.346H67.7958C67.905 128.346 68.0143 128.419 68.0143 128.564V128.674C68.0143 128.746 67.9414 128.819 67.7958 128.819Z" fill="#FF9900"/>
<mask id="mask4_1098:11242" style="mask-type:alpha" maskUnits="userSpaceOnUse" x="54" y="96" width="8" height="37">
<path d="M61.4601 102.021C61.4601 102.021 60.2585 105.735 60.8411 108.757C61.4237 111.779 61.1324 122.411 59.4939 126.525C58.6565 128.564 59.2755 130.603 60.1129 132.133H55.2704C54.9427 131.332 54.9062 130.203 54.9062 130.057V129.948C54.9062 129.839 55.0155 129.729 55.1247 129.729H55.0519V128.856H55.1247C55.0155 128.856 54.9062 128.783 54.9062 128.637V128.528C54.9062 128.419 55.0155 128.309 55.1247 128.309H55.5252V127.8C55.3432 127.8 54.9791 127.545 54.9791 126.926C54.9791 126.598 55.1247 126.38 55.2339 126.271C55.3795 126.125 55.4888 126.052 55.4888 126.052C58.0375 124.268 58.9114 120.336 58.9114 117.714C58.9114 115.966 58.6201 114.874 58.3288 114.255C58.0375 113.636 57.7462 113.418 57.7462 113.418V113.054H57.9283V112.653H57.7098C57.6006 112.653 57.5278 112.58 57.5278 112.507V112.325C57.5278 112.253 57.6006 112.18 57.7098 112.18H57.7826C57.7826 112.18 57.3093 111.597 57.9647 111.233C57.9647 111.233 58.4744 110.905 58.4744 110.432C58.4744 110.286 58.438 110.104 58.2924 109.922V109.449H59.1298V109.012H59.5303C59.057 109.012 58.6565 108.684 58.5473 108.247L57.6006 103.842C57.6006 103.769 57.5642 103.696 57.5642 103.623C57.5642 103.478 57.5642 102.713 59.3119 102.167V101.948H60.1493C59.9672 101.948 59.8216 101.803 59.858 101.657L60.1493 100.783C60.2221 100.601 60.0036 100.456 59.7852 100.492L58.7293 100.747C58.5473 100.783 58.3652 100.674 58.3652 100.528V98.3438C58.3652 98.1982 58.5473 98.089 58.7293 98.1254L59.7852 98.3802C60.0036 98.4166 60.1857 98.271 60.1493 98.089L59.858 97.2151C59.8216 97.0695 59.9308 96.9238 60.1493 96.9238H61.4965V102.021H61.4601Z" fill="url(#paint7_linear_1098:11242)"/>
</mask>
<g mask="url(#mask4_1098:11242)">
<path opacity="0.44" d="M61.4601 102.021C61.4601 102.021 60.2585 105.735 60.8411 108.757C61.4237 111.779 61.1324 122.411 59.4939 126.525C58.6565 128.564 59.2755 130.603 60.1129 132.133H55.2704C54.9427 131.332 54.9062 130.203 54.9062 130.057V129.948C54.9062 129.839 55.0155 129.729 55.1247 129.729H55.0519V128.856H55.1247C55.0155 128.856 54.9062 128.783 54.9062 128.637V128.528C54.9062 128.419 55.0155 128.309 55.1247 128.309H55.5252V127.8C55.3432 127.8 54.9791 127.545 54.9791 126.926C54.9791 126.598 55.1247 126.38 55.2339 126.271C55.3795 126.125 55.4888 126.052 55.4888 126.052C58.0375 124.268 58.9114 120.336 58.9114 117.714C58.9114 115.966 58.6201 114.874 58.3288 114.255C58.0375 113.636 57.7462 113.418 57.7462 113.418V113.054H57.9283V112.653H57.7098C57.6006 112.653 57.5278 112.58 57.5278 112.507V112.325C57.5278 112.253 57.6006 112.18 57.7098 112.18H57.7826C57.7826 112.18 57.3093 111.597 57.9647 111.233C57.9647 111.233 58.4744 110.905 58.4744 110.432C58.4744 110.286 58.438 110.104 58.2924 109.922V109.449H59.1298V109.012H59.5303C59.057 109.012 58.6565 108.684 58.5473 108.247L57.6006 103.842C57.6006 103.769 57.5642 103.696 57.5642 103.623C57.5642 103.478 57.5642 102.713 59.3119 102.167V101.948H60.1493C59.9672 101.948 59.8216 101.803 59.858 101.657L60.1493 100.783C60.2221 100.601 60.0036 100.456 59.7852 100.492L58.7293 100.747C58.5473 100.783 58.3652 100.674 58.3652 100.528V98.3438C58.3652 98.1982 58.5473 98.089 58.7293 98.1254L59.7852 98.3802C60.0036 98.4166 60.1857 98.271 60.1493 98.089L59.858 97.2151C59.8216 97.0695 59.9308 96.9238 60.1493 96.9238H61.4965V102.021H61.4601Z" fill="url(#paint8_linear_1098:11242)"/>
</g>
<path d="M80.5387 23.9209L77.0797 14.8184L71.3997 22.2461L65.6833 14.8184L62.2243 23.9209L55.8525 19.2604C55.8525 19.2604 59.0566 33.5332 59.0566 33.5696C66.812 35.7178 75.951 35.7178 83.7064 33.5696L86.9105 19.2968L80.5387 23.9209Z" fill="url(#paint9_radial_1098:11242)"/>
<path d="M59.0933 34.335C59.0933 34.335 70.3804 38.158 83.5609 34.517L83.3061 35.9734C83.3061 35.9734 69.9435 39.3596 59.2753 35.7186L59.0933 34.335Z" fill="url(#paint10_linear_1098:11242)"/>
<path d="M55.8895 21.0808C56.8346 21.0808 57.6007 20.3146 57.6007 19.3695C57.6007 18.4244 56.8346 17.6582 55.8895 17.6582C54.9444 17.6582 54.1782 18.4244 54.1782 19.3695C54.1782 20.3146 54.9444 21.0808 55.8895 21.0808Z" fill="url(#paint11_linear_1098:11242)"/>
<path d="M65.7201 16.7116C66.6652 16.7116 67.4313 15.9455 67.4313 15.0003C67.4313 14.0552 66.6652 13.2891 65.7201 13.2891C64.7749 13.2891 64.0088 14.0552 64.0088 15.0003C64.0088 15.9455 64.7749 16.7116 65.7201 16.7116Z" fill="url(#paint12_linear_1098:11242)"/>
<path d="M77.1166 16.53C78.0617 16.53 78.8279 15.7638 78.8279 14.8187C78.8279 13.8736 78.0617 13.1074 77.1166 13.1074C76.1715 13.1074 75.4053 13.8736 75.4053 14.8187C75.4053 15.7638 76.1715 16.53 77.1166 16.53Z" fill="url(#paint13_linear_1098:11242)"/>
<path d="M86.9467 20.8991C87.8918 20.8991 88.6579 20.133 88.6579 19.1878C88.6579 18.2427 87.8918 17.4766 86.9467 17.4766C86.0015 17.4766 85.2354 18.2427 85.2354 19.1878C85.2354 20.133 86.0015 20.8991 86.9467 20.8991Z" fill="url(#paint14_linear_1098:11242)"/>
<g filter="url(#filter2_d_1098:11242)">
<path d="M62.9164 31.822C63.7207 31.822 64.3728 31.1699 64.3728 30.3656C64.3728 29.5612 63.7207 28.9092 62.9164 28.9092C62.112 28.9092 61.46 29.5612 61.46 30.3656C61.46 31.1699 62.112 31.822 62.9164 31.822Z" fill="url(#paint15_linear_1098:11242)"/>
<path d="M68.3046 32.2956C69.1089 32.2956 69.761 31.6436 69.761 30.8392C69.761 30.0349 69.1089 29.3828 68.3046 29.3828C67.5002 29.3828 66.8481 30.0349 66.8481 30.8392C66.8481 31.6436 67.5002 32.2956 68.3046 32.2956Z" fill="url(#paint16_linear_1098:11242)"/>
<path d="M73.9491 32.2956C74.7534 32.2956 75.4055 31.6436 75.4055 30.8392C75.4055 30.0349 74.7534 29.3828 73.9491 29.3828C73.1447 29.3828 72.4927 30.0349 72.4927 30.8392C72.4927 31.6436 73.1447 32.2956 73.9491 32.2956Z" fill="url(#paint17_linear_1098:11242)"/>
<path d="M79.7015 32.0036C80.5059 32.0036 81.1579 31.3516 81.1579 30.5472C81.1579 29.7429 80.5059 29.0908 79.7015 29.0908C78.8972 29.0908 78.2451 29.7429 78.2451 30.5472C78.2451 31.3516 78.8972 32.0036 79.7015 32.0036Z" fill="url(#paint18_linear_1098:11242)"/>
</g>
</g>
<defs>
<filter id="filter0_ii_1098:11242" x="45.728" y="89.4023" width="51.8545" height="54.4775" filterUnits="userSpaceOnUse" color-interpolation-filters="sRGB">
<feFlood flood-opacity="0" result="BackgroundImageFix"/>
<feBlend mode="normal" in="SourceGraphic" in2="BackgroundImageFix" result="shape"/>
<feColorMatrix in="SourceAlpha" type="matrix" values="0 0 0 0 0 0 0 0 0 0 0 0 0 0 0 0 0 0 127 0" result="hardAlpha"/>
<feOffset/>
<feGaussianBlur stdDeviation="15"/>
<feComposite in2="hardAlpha" operator="arithmetic" k2="-1" k3="1"/>
<feColorMatrix type="matrix" values="0 0 0 0 0.4 0 0 0 0 0.4 0 0 0 0 1 0 0 0 1 0"/>
<feBlend mode="normal" in2="shape" result="effect1_innerShadow_1098:11242"/>
<feColorMatrix in="SourceAlpha" type="matrix" values="0 0 0 0 0 0 0 0 0 0 0 0 0 0 0 0 0 0 127 0" result="hardAlpha"/>
<feOffset/>
<feGaussianBlur stdDeviation="2.5"/>
<feComposite in2="hardAlpha" operator="arithmetic" k2="-1" k3="1"/>
<feColorMatrix type="matrix" values="0 0 0 0 1 0 0 0 0 1 0 0 0 0 1 0 0 0 0.53 0"/>
<feBlend mode="normal" in2="effect1_innerShadow_1098:11242" result="effect2_innerShadow_1098:11242"/>
</filter>
<filter id="filter1_ii_1098:11242" x="36.4819" y="25.2686" width="69.2158" height="69.0703" filterUnits="userSpaceOnUse" color-interpolation-filters="sRGB">
<feFlood flood-opacity="0" result="BackgroundImageFix"/>
<feBlend mode="normal" in="SourceGraphic" in2="BackgroundImageFix" result="shape"/>
<feColorMatrix in="SourceAlpha" type="matrix" values="0 0 0 0 0 0 0 0 0 0 0 0 0 0 0 0 0 0 127 0" result="hardAlpha"/>
<feOffset/>
<feGaussianBlur stdDeviation="15"/>
<feComposite in2="hardAlpha" operator="arithmetic" k2="-1" k3="1"/>
<feColorMatrix type="matrix" values="0 0 0 0 0.4 0 0 0 0 0.4 0 0 0 0 1 0 0 0 1 0"/>
<feBlend mode="normal" in2="shape" result="effect1_innerShadow_1098:11242"/>
<feColorMatrix in="SourceAlpha" type="matrix" values="0 0 0 0 0 0 0 0 0 0 0 0 0 0 0 0 0 0 127 0" result="hardAlpha"/>
<feOffset/>
<feGaussianBlur stdDeviation="2.5"/>
<feComposite in2="hardAlpha" operator="arithmetic" k2="-1" k3="1"/>
<feColorMatrix type="matrix" values="0 0 0 0 1 0 0 0 0 1 0 0 0 0 1 0 0 0 0.53 0"/>
<feBlend mode="normal" in2="effect1_innerShadow_1098:11242" result="effect2_innerShadow_1098:11242"/>
</filter>
<filter id="filter2_d_1098:11242" x="57.46" y="25.9092" width="27.6978" height="11.3867" filterUnits="userSpaceOnUse" color-interpolation-filters="sRGB">
<feFlood flood-opacity="0" result="BackgroundImageFix"/>
<feColorMatrix in="SourceAlpha" type="matrix" values="0 0 0 0 0 0 0 0 0 0 0 0 0 0 0 0 0 0 127 0" result="hardAlpha"/>
<feOffset dy="1"/>
<feGaussianBlur stdDeviation="2"/>
<feColorMatrix type="matrix" values="0 0 0 0 0.920833 0 0 0 0 0.551769 0 0 0 0 0 0 0 0 1 0"/>
<feBlend mode="normal" in2="BackgroundImageFix" result="effect1_dropShadow_1098:11242"/>
<feBlend mode="normal" in="SourceGraphic" in2="effect1_dropShadow_1098:11242" result="shape"/>
</filter>
<radialGradient id="paint0_radial_1098:11242" cx="0" cy="0" r="1" gradientUnits="userSpaceOnUse" gradientTransform="translate(87.5679 104.38) rotate(111.942) scale(42.5846 43.5651)">
<stop stop-color="#9393FF"/>
<stop offset="1" stop-color="#4B4BFF"/>
</radialGradient>
<radialGradient id="paint1_radial_1098:11242" cx="0" cy="0" r="1" gradientUnits="userSpaceOnUse" gradientTransform="translate(92.3302 44.2586) rotate(112.983) scale(54.3983 57.716)">
<stop stop-color="#9393FF"/>
<stop offset="1" stop-color="#4B4BFF"/>
</radialGradient>
<linearGradient id="paint2_linear_1098:11242" x1="40.6585" y1="98.9091" x2="36.952" y2="88.8293" gradientUnits="userSpaceOnUse">
<stop stop-color="white"/>
<stop offset="0.2276" stop-color="#C5C5C5"/>
<stop offset="1"/>
</linearGradient>
<linearGradient id="paint3_linear_1098:11242" x1="39.5596" y1="83.415" x2="39.5596" y2="105.152" gradientUnits="userSpaceOnUse">
<stop stop-color="#58595B"/>
<stop offset="1" stop-color="#58595B" stop-opacity="0"/>
</linearGradient>
<linearGradient id="paint4_linear_1098:11242" x1="105.105" y1="111.981" x2="109.743" y2="101.145" gradientUnits="userSpaceOnUse">
<stop stop-color="white"/>
<stop offset="1"/>
</linearGradient>
<linearGradient id="paint5_linear_1098:11242" x1="95.2096" y1="98.999" x2="102.279" y2="88.7584" gradientUnits="userSpaceOnUse">
<stop stop-color="white"/>
<stop offset="0.3696" stop-color="#A1A1A1"/>
<stop offset="1"/>
</linearGradient>
<linearGradient id="paint6_linear_1098:11242" x1="95.2096" y1="98.999" x2="102.279" y2="88.7584" gradientUnits="userSpaceOnUse">
<stop stop-color="#F3B47C"/>
<stop offset="0.3696" stop-color="#F6C292"/>
<stop offset="1" stop-color="#FADCBC"/>
</linearGradient>
<linearGradient id="paint7_linear_1098:11242" x1="65.5602" y1="102.877" x2="54.1244" y2="125.052" gradientUnits="userSpaceOnUse">
<stop/>
<stop offset="0.9948" stop-color="white"/>
</linearGradient>
<linearGradient id="paint8_linear_1098:11242" x1="58.2014" y1="96.9238" x2="58.2014" y2="132.133" gradientUnits="userSpaceOnUse">
<stop stop-color="white"/>
<stop offset="1" stop-color="white" stop-opacity="0"/>
</linearGradient>
<radialGradient id="paint9_radial_1098:11242" cx="0" cy="0" r="1" gradientUnits="userSpaceOnUse" gradientTransform="translate(79.1664 26.8102) rotate(-154.003) scale(23.9934 19.7645)">
<stop stop-color="#FFD86F"/>
<stop offset="1" stop-color="#FFA800"/>
</radialGradient>
<linearGradient id="paint10_linear_1098:11242" x1="59.1054" y1="35.8833" x2="83.5609" y2="35.8833" gradientUnits="userSpaceOnUse">
<stop stop-color="#FFC322"/>
<stop offset="1" stop-color="#FF9900"/>
</linearGradient>
<linearGradient id="paint11_linear_1098:11242" x1="54.1863" y1="19.3539" x2="57.5927" y2="19.3539" gradientUnits="userSpaceOnUse">
<stop stop-color="#FFC322"/>
<stop offset="1" stop-color="#FF9900"/>
</linearGradient>
<linearGradient id="paint12_linear_1098:11242" x1="64.0168" y1="14.9847" x2="67.4233" y2="14.9847" gradientUnits="userSpaceOnUse">
<stop stop-color="#FFC322"/>
<stop offset="1" stop-color="#FF9900"/>
</linearGradient>
<linearGradient id="paint13_linear_1098:11242" x1="75.4214" y1="14.8031" x2="78.8279" y2="14.8031" gradientUnits="userSpaceOnUse">
<stop stop-color="#FFC322"/>
<stop offset="1" stop-color="#FF9900"/>
</linearGradient>
<linearGradient id="paint14_linear_1098:11242" x1="85.2515" y1="19.1722" x2="88.6579" y2="19.1722" gradientUnits="userSpaceOnUse">
<stop stop-color="#FFC322"/>
<stop offset="1" stop-color="#FF9900"/>
</linearGradient>
<linearGradient id="paint15_linear_1098:11242" x1="61.4418" y1="30.3682" x2="64.3546" y2="30.3682" gradientUnits="userSpaceOnUse">
<stop stop-color="#FFC322"/>
<stop offset="1" stop-color="#FF9900"/>
</linearGradient>
<linearGradient id="paint16_linear_1098:11242" x1="66.8561" y1="30.8444" x2="69.7689" y2="30.8444" gradientUnits="userSpaceOnUse">
<stop stop-color="#FFC322"/>
<stop offset="1" stop-color="#FF9900"/>
</linearGradient>
<linearGradient id="paint17_linear_1098:11242" x1="72.4908" y1="30.8231" x2="75.4036" y2="30.8231" gradientUnits="userSpaceOnUse">
<stop stop-color="#FFC322"/>
<stop offset="1" stop-color="#FF9900"/>
</linearGradient>
<linearGradient id="paint18_linear_1098:11242" x1="78.2497" y1="30.5635" x2="81.1626" y2="30.5635" gradientUnits="userSpaceOnUse">
<stop stop-color="#FFC322"/>
<stop offset="1" stop-color="#FF9900"/>
</linearGradient>
</defs>
</svg>
