<svg width="17" height="21" viewBox="0 0 17 21" fill="none" xmlns="http://www.w3.org/2000/svg">
<path d="M8.99807 0.953186C5.11106 0.953186 2.29705 2.12019 1.30205 3.78119C1.04405 4.21119 0.998047 4.67719 0.998047 4.95319V16.9532C0.998047 17.2292 1.07605 17.6822 1.31905 18.1282C2.19605 19.7332 5.11106 20.9532 8.99807 20.9532C12.8841 20.9532 15.5921 19.8172 16.6301 18.2302C16.8541 17.8872 17.0041 17.3762 16.9981 16.9532V4.95319C16.9981 4.67719 16.9611 4.38719 16.8361 4.08319C16.0421 2.16519 12.8841 0.953186 8.99807 0.953186ZM8.99807 2.95319C10.7511 2.95319 12.3881 3.2632 13.5601 3.7652C14.5371 4.1842 14.9981 4.64319 14.9981 4.95319C14.9981 5.26319 14.5371 5.72217 13.5601 6.14117C12.3881 6.64317 10.7511 6.95319 8.99807 6.95319C7.24506 6.95319 5.60705 6.64317 4.43505 6.14117C3.45805 5.72217 2.99805 5.26319 2.99805 4.95319C2.99805 4.64319 3.45805 4.1842 4.43505 3.7652C5.60705 3.2632 7.24506 2.95319 8.99807 2.95319ZM2.99405 7.66119C4.47006 8.50519 6.57906 8.95319 8.99807 8.95319C11.4161 8.95319 13.5161 8.51518 14.9931 7.67218L14.9981 10.9532C14.9981 11.2632 14.5371 11.7222 13.5601 12.1412C12.3881 12.6432 10.7511 12.9532 8.99807 12.9532C7.24506 12.9532 5.60705 12.6432 4.43505 12.1412C3.45805 11.7222 2.99805 11.2632 2.99805 10.9532L2.99405 7.66119ZM2.99906 13.6712C4.42606 14.4452 6.57906 14.9532 8.99807 14.9532C11.4161 14.9532 13.4811 14.4822 14.9941 13.6722L14.9981 16.9532C14.9981 17.2632 14.5371 17.7222 13.5601 18.1412C12.3881 18.6432 10.7511 18.9532 8.99807 18.9532C7.24506 18.9532 5.60705 18.6432 4.43505 18.1412C3.45805 17.7222 2.99805 17.2632 2.99805 16.9532L2.99906 13.6712Z" fill="black"/>
</svg>
