<svg width="12" height="12" viewBox="0 0 12 12" fill="none" xmlns="http://www.w3.org/2000/svg">
<path d="M9.49792 0.139404C9.34276 0.139404 9.18759 0.194241 9.07851 0.303325L8.49461 0.887229C8.26652 1.11531 8.26652 1.49856 8.49461 1.72606C8.71336 1.94481 10.027 3.25849 10.2458 3.47724C10.4738 3.70532 10.8565 3.70532 11.0846 3.47724L11.6685 2.89333C11.7776 2.78425 11.8324 2.62908 11.8324 2.47392C11.8324 2.03933 11.644 1.44665 11.0846 0.887229C10.5252 0.327811 9.93251 0.139404 9.49792 0.139404ZM5.41225 0.723308C4.94617 0.723308 4.47309 0.895979 4.11725 1.25181L2.84676 2.45875L2.49384 2.46751C2.17184 2.46751 1.91051 2.72883 1.91051 3.05141C1.91051 3.37341 2.17184 3.63475 2.49384 3.63475H3.07776C3.23235 3.63475 3.39742 3.56241 3.50709 3.45274L4.93801 2.09007C5.19351 1.83457 5.61118 1.81708 5.86668 2.07316L6.30593 2.49492L1.49109 7.30743C1.16209 7.63643 0.895505 8.29033 0.615505 9.25867C0.498255 9.66467 0.404348 10.1039 0.305182 10.5356C0.270765 10.6867 0.183838 11.0892 0.178005 11.1195C0.096338 11.5278 0.444008 11.8755 0.852342 11.7944C0.883259 11.788 1.28518 11.7011 1.43626 11.6667C1.86793 11.5675 2.30718 11.4736 2.71318 11.3563C3.68151 11.0763 4.33601 10.8098 4.66443 10.4808L9.89927 5.22784C10.1279 4.99918 10.1291 4.63457 9.89927 4.40707L7.58284 2.12742L7.5461 2.09125L6.70726 1.25181C6.35142 0.895979 5.87834 0.722725 5.41225 0.723308Z" fill="white"/>
</svg>
