<svg width="20" height="19" viewBox="0 0 20 19" fill="none" xmlns="http://www.w3.org/2000/svg">
<path d="M13.5 0.929688C11.0147 0.929688 9 2.94469 9 5.42969C9 7.91469 11.0147 9.92969 13.5 9.92969C15.9853 9.92969 18 7.91469 18 5.42969C18 2.94469 15.9853 0.929688 13.5 0.929688ZM6 1.92969C3.7909 1.92969 2 3.72069 2 5.92969C2 8.13869 3.7909 9.92969 6 9.92969C6.8294 9.92969 7.5865 9.70172 8.2528 9.23572C6.544 6.69572 6.7862 4.26369 7.7175 2.30469C7.1856 2.05269 6.6014 1.92969 6 1.92969ZM3.0625 11.2737C1.2284 12.0307 0 13.8857 0 15.9297V17.9297C0 18.4817 0.4477 18.9297 1 18.9297L5.1528 18.9317C4.9188 18.1717 4.9876 16.9397 5.003 15.9427C5.0355 13.8257 5.911 12.3157 6.2539 11.9177C5.6237 11.9127 4.8674 11.7597 4.3125 11.5237C4.1785 11.4667 4.1007 11.4217 3.8438 11.3047C3.5919 11.1897 3.3183 11.1677 3.0625 11.2737ZM10.0625 11.2737C8.2284 12.0307 7 13.8857 7 15.9297V17.9297C7 18.4817 7.4477 18.9297 8 18.9297H19C19.5523 18.9297 20 18.4817 20 17.9297V15.9297C20 13.9337 18.7648 12.1237 16.9375 11.3357C16.6803 11.2247 16.3806 11.2217 16.125 11.3357C15.2402 11.7327 14.3782 11.9297 13.5 11.9297C12.6248 11.9297 11.7598 11.7217 10.8438 11.3047C10.5919 11.1897 10.3183 11.1677 10.0625 11.2737Z" fill="black"/>
</svg>
